<?xml version="1.0" encoding="iso-8859-1"?>
<!-- Generator: Adobe Illustrator 19.0.0, SVG Export Plug-In . SVG Version: 6.00 Build 0)  -->
<svg version="1.1" id="Layer_1" xmlns="http://www.w3.org/2000/svg" xmlns:xlink="http://www.w3.org/1999/xlink" x="0px" y="0px"
	 viewBox="0 0 511.999 511.999" style="enable-background:new 0 0 511.999 511.999;" xml:space="preserve">
<g>
	<g>
		<path d="M434.617,199.815c5.239,0,9.485-4.246,9.485-9.485v-41.13c0-5.239-4.247-9.485-9.485-9.485h-30.868V121.35
			c0-13.831-11.212-25.042-25.042-25.042h-15.025V17.685C363.681,7.918,355.764,0,345.996,0H166.003
			c-9.767,0-17.685,7.918-17.685,17.685v78.621h-15.025c-13.831,0-25.042,11.212-25.042,25.042v18.364H77.382
			c-5.239,0-9.485,4.247-9.485,9.485v41.13c0,5.239,4.247,9.485,9.485,9.485h30.868v34.878H77.382c-5.239,0-9.485,4.246-9.485,9.485
			v41.13c0,5.239,4.247,9.485,9.485,9.485h30.868v192.164c0,13.831,11.212,25.042,25.042,25.042h245.414
			c13.831,0,25.042-11.212,25.042-25.042V294.794h30.868c5.239,0,9.485-4.247,9.485-9.485v-41.13c0-5.239-4.247-9.485-9.485-9.485
			h-30.868v-34.878H434.617z M243.932,154.357c6.665-6.665,17.471-6.665,24.136,0c6.665,6.665,6.665,17.47,0,24.136
			s-17.471,6.665-24.136,0C237.267,171.828,237.267,161.021,243.932,154.357z M163.793,154.357c6.665-6.665,17.471-6.665,24.136,0
			s6.665,17.47,0,24.136s-17.471,6.665-24.136,0C157.128,171.828,157.128,161.021,163.793,154.357z M323.056,431.872H188.943
			c-7.226,0-13.084-5.857-13.084-13.083V300.445c0-7.226,5.858-13.083,13.084-13.083h134.112c7.226,0,13.083,5.858,13.083,13.083
			v118.344h0.001C336.139,426.015,330.281,431.872,323.056,431.872z M348.206,178.492c-6.665,6.665-17.471,6.665-24.136,0
			s-6.665-17.471,0-24.136c6.665-6.665,17.471-6.665,24.136,0C354.871,161.021,354.871,171.827,348.206,178.492z"/>
	</g>
</g>
<g>
</g>
<g>
</g>
<g>
</g>
<g>
</g>
<g>
</g>
<g>
</g>
<g>
</g>
<g>
</g>
<g>
</g>
<g>
</g>
<g>
</g>
<g>
</g>
<g>
</g>
<g>
</g>
<g>
</g>
</svg>
